<?xml version="1.0" encoding="UTF-8"?>
<svg version="1.1" xmlns="http://www.w3.org/2000/svg" width="1024" height="269">
<path d="M0 0 C3.07305351 1.28399574 5.74081695 2.95817534 8.5 4.8125 C9.27625732 5.31023926 10.05251465 5.80797852 10.85229492 6.32080078 C13.24753913 7.86197017 15.62413143 9.4291737 18 11 C19.40109318 11.90948154 20.80338946 12.81711304 22.20703125 13.72265625 C24.26919345 15.05411175 26.33050957 16.38671406 28.38818359 17.72509766 C59.93162814 40.10563954 59.93162814 40.10563954 96.875 45.5625 C118.19546653 40.22377252 138.30522378 23.76470714 156.58007812 12.23803711 C158.43594084 11.07069688 160.29640873 9.91064296 162.16162109 8.75830078 C164.15069108 7.52612445 166.12661184 6.27258554 168.09228516 5.00341797 C178.26006669 -1.34526895 178.26006669 -1.34526895 185 0 C188.52374134 1.50277204 191.73543839 3.37843399 195 5.375 C195.9293335 5.92518799 196.85866699 6.47537598 197.81616211 7.04223633 C200.55742033 8.67396574 203.28170674 10.33034641 206 12 C206.68594238 12.42104004 207.37188477 12.84208008 208.07861328 13.27587891 C210.52327052 14.78496614 212.96110548 16.30311432 215.38183594 17.8503418 C219.27052125 20.32969511 223.20092512 22.71991462 227.18199158 25.04875183 C229.73568126 26.54339618 232.28190141 28.05056723 234.82833862 29.55752563 C236.09782042 30.30400569 237.37083563 31.04451269 238.64749146 31.77865601 C240.45686474 32.82004907 242.25243293 33.88235644 244.046875 34.94921875 C245.09713867 35.56112061 246.14740234 36.17302246 247.22949219 36.8034668 C251.30539087 40.03494904 253.6203603 43.39373853 254.36956406 48.53709126 C254.52000329 51.60303053 254.54043267 54.64550024 254.51757812 57.71508789 C254.52809204 59.45780724 254.52809204 59.45780724 254.53881836 61.23573303 C254.55638185 65.06495262 254.54478126 68.89342952 254.53125 72.72265625 C254.53394519 75.38871679 254.53782195 78.05475499 254.54284668 80.72080994 C254.55011038 86.30329395 254.54056816 91.88556582 254.52148438 97.46801758 C254.49970713 103.91259941 254.50677785 110.35667517 254.52879 116.8012448 C254.54696796 122.34627603 254.54949103 127.89115534 254.53903532 133.43620676 C254.53281478 136.74292486 254.53350673 140.04935428 254.54518127 143.35606575 C254.55534136 147.04249409 254.5398517 150.72795067 254.51757812 154.41430664 C254.52567505 155.50382629 254.53377197 156.59334595 254.54211426 157.71588135 C254.47414023 163.78951206 254.08243446 167.39030346 250 172 C247.54003906 173.91186523 247.54003906 173.91186523 244.765625 175.55859375 C243.21077393 176.49650757 243.21077393 176.49650757 241.62451172 177.45336914 C240.51092285 178.10813232 239.39733398 178.76289551 238.25 179.4375 C237.07869147 180.13969829 235.9082945 180.84341914 234.73876953 181.54858398 C232.33467948 182.99747699 229.92759156 184.44118519 227.51855469 185.88183594 C222.25928934 189.0368204 217.06798264 192.29996533 211.875 195.5625 C209.89071666 196.80483392 207.90634163 198.04702139 205.921875 199.2890625 C203.94784252 200.52592333 201.97388408 201.76290235 200 203 C186.60286319 211.39642337 173.18157604 219.74974425 159.70703125 228.02148438 C152.48927986 232.45622912 145.30021275 236.93432836 138.125 241.4375 C129.70000206 246.71816582 121.24088928 251.94037185 112.74749756 257.11013794 C111.51285875 257.86171058 110.27867623 258.61403336 109.04498291 259.36715698 C107.32060842 260.41920312 105.59393668 261.46748105 103.8671875 262.515625 C102.38387939 263.41716309 102.38387939 263.41716309 100.87060547 264.33691406 C91.35843623 269.8477915 91.35843623 269.8477915 85 269 C78.01897702 266.05542349 71.57864061 262.03268851 65.1875 258 C63.33341684 256.84101224 61.47924779 255.68216187 59.625 254.5234375 C58.68914062 253.9365918 57.75328125 253.34974609 56.7890625 252.74511719 C52.43338427 250.0197681 48.0594658 247.32410881 43.6875 244.625 C36.21403506 240.00319675 28.75990121 235.35116091 21.3125 230.6875 C11.80856899 224.73687858 2.26770845 218.84849493 -7.2878418 212.98120117 C-15.52714679 207.91771119 -23.73387721 202.8040702 -31.92578125 197.66430664 C-37.26611574 194.31819805 -42.62144841 190.99902608 -48 187.71484375 C-48.58587891 187.35657501 -49.17175781 186.99830627 -49.77539062 186.62918091 C-52.60515487 184.89891757 -55.43706047 183.17255165 -58.2734375 181.453125 C-73.60991723 172.08512416 -73.60991723 172.08512416 -77 167 C-77.26006222 164.7266798 -77.26006222 164.7266798 -77.27415466 162.01005554 C-77.28412979 160.97966156 -77.29410492 159.94926758 -77.30438232 158.88764954 C-77.305047 157.75772079 -77.30571167 156.62779205 -77.30639648 155.46362305 C-77.31472 154.27313354 -77.32304352 153.08264404 -77.33161926 151.8560791 C-77.35160812 148.58939753 -77.36236413 145.32286379 -77.36744571 142.05612922 C-77.37108918 140.01427904 -77.37732924 137.97245339 -77.3844471 135.93061256 C-77.40894564 128.80439807 -77.42199393 121.6782564 -77.42553711 114.55200195 C-77.4291707 107.91434225 -77.45905171 101.27714543 -77.50094169 94.63962716 C-77.53566323 88.93759318 -77.55108588 83.23571241 -77.55178314 77.53357345 C-77.55257548 74.12944976 -77.56129224 70.72579733 -77.58978081 67.32178307 C-77.61660923 63.52229822 -77.61189338 59.72409147 -77.59936523 55.92456055 C-77.61419952 54.8007045 -77.62903381 53.67684845 -77.64431763 52.51893616 C-77.56437577 44.01310586 -77.56437577 44.01310586 -74.61566162 40.36747742 C-72.14295726 38.12939292 -69.83948356 36.3632865 -66.95703125 34.6953125 C-65.97822998 34.11974609 -64.99942871 33.54417969 -63.9909668 32.95117188 C-62.94207275 32.34853516 -61.89317871 31.74589844 -60.8125 31.125 C-58.56418102 29.80626011 -56.31681602 28.48589269 -54.0703125 27.1640625 C-53.49228378 26.82566345 -52.91425507 26.4872644 -52.31871033 26.13861084 C-44.81067707 21.73619408 -37.42879358 17.13017308 -30.0324707 12.54345703 C-28.02254142 11.30061619 -26.008382 10.06458642 -23.98974609 8.8359375 C-21.93921744 7.57675283 -19.90628313 6.28859477 -17.88916016 4.9765625 C-11.9846327 1.25741035 -7.08007628 -1.81754736 0 0 Z " fill="#F85559" transform="translate(77,0)"/>
<path d="M0 0 C1.22083276 2.44166553 1.1338415 4.02567704 1.14717102 6.75579834 C1.15790398 8.26146362 1.15790398 8.26146362 1.16885376 9.79754639 C1.17154266 10.90301819 1.17423157 12.00848999 1.17700195 13.14746094 C1.18357315 14.3085437 1.19014435 15.46962646 1.19691467 16.66589355 C1.21668334 20.52205463 1.22831819 24.3781767 1.23828125 28.234375 C1.24235678 29.54895943 1.2464323 30.86354385 1.25063133 32.21796417 C1.26968551 38.45754163 1.28391501 44.69710725 1.2922433 50.93670821 C1.3020115 58.13611149 1.32831874 65.33520696 1.36874419 72.53450179 C1.39892474 78.10062219 1.41371407 83.66665446 1.41702431 89.23285508 C1.41937302 92.55647453 1.43028581 95.87969035 1.45348549 99.20323944 C1.47777841 102.91406367 1.47692932 106.62408188 1.4699707 110.33496094 C1.48918579 111.98102325 1.48918579 111.98102325 1.50878906 113.66033936 C1.46706833 119.75912965 1.10935338 123.37599972 -3 128 C-5.45996094 129.91186523 -5.45996094 129.91186523 -8.234375 131.55859375 C-9.78922607 132.49650757 -9.78922607 132.49650757 -11.37548828 133.45336914 C-12.48907715 134.10813232 -13.60266602 134.76289551 -14.75 135.4375 C-15.92130853 136.13969829 -17.0917055 136.84341914 -18.26123047 137.54858398 C-20.66532052 138.99747699 -23.07240844 140.44118519 -25.48144531 141.88183594 C-30.74071066 145.0368204 -35.93201736 148.29996533 -41.125 151.5625 C-43.10928334 152.80483392 -45.09365837 154.04702139 -47.078125 155.2890625 C-49.05215748 156.52592333 -51.02611592 157.76290235 -53 159 C-66.39713681 167.39642337 -79.81842396 175.74974425 -93.29296875 184.02148438 C-100.51071615 188.45622667 -107.70002643 192.93395111 -114.875 197.4375 C-125.18870857 203.90886358 -135.58143404 210.24461773 -146.00146484 216.54272461 C-146.57977554 216.89247345 -147.15808624 217.24222229 -147.75392151 217.60256958 C-149.32546788 218.55263747 -150.89769621 219.50157703 -152.4699707 220.45043945 C-154.33786966 221.59446673 -156.17747841 222.78498561 -158 224 C-160.33199388 224.07905064 -162.66832622 224.08798769 -165 224 C-165.21032372 206.76277404 -165.36898769 189.52594893 -165.46630955 172.28773308 C-165.51270099 164.28350791 -165.57593589 156.28008035 -165.67895508 148.27636719 C-165.76871385 141.29954404 -165.8267358 134.3232985 -165.84679645 127.34591401 C-165.85852234 123.65169456 -165.88603434 119.95912735 -165.95157051 116.26543808 C-166.02417921 112.13959528 -166.0259063 108.01661635 -166.02172852 103.89013672 C-166.054086 102.66806015 -166.08644348 101.44598358 -166.11978149 100.18687439 C-166.03078911 92.07791887 -166.03078911 92.07791887 -163.02244377 88.93202591 C-160.73872368 87.38876326 -158.49579062 86.16087827 -156 85 C-155.11054688 84.45214844 -154.22109375 83.90429688 -153.3046875 83.33984375 C-150.20744583 81.55220748 -147.10678087 79.77098598 -144 78 C-143.21882813 77.55269531 -142.43765625 77.10539062 -141.6328125 76.64453125 C-129.41353519 69.65422396 -117.09975397 62.86629689 -104.68603516 56.2277832 C-97.6504414 52.45562496 -90.68163489 48.58453756 -83.75 44.625 C-74.28468943 39.22194053 -64.69834187 34.07570717 -55.06741333 28.97683716 C-46.53700657 24.4578114 -38.07449684 19.84462807 -29.6875 15.0625 C-22.89549026 11.19076361 -16.08689452 7.36525503 -9.1875 3.6875 C-8.48133545 3.30795166 -7.7751709 2.92840332 -7.04760742 2.53735352 C-2.24288302 0 -2.24288302 0 0 0 Z " fill="#F4127B" transform="translate(330,44)"/>
<path d="M0 0 C3.83521772 1.50230584 7.41880197 3.21158298 11.05078125 5.16015625 C11.62140289 5.46561371 12.19202454 5.77107117 12.77993774 6.08578491 C14.62570018 7.07512159 16.46920832 8.0685685 18.3125 9.0625 C19.59772473 9.75336058 20.88296244 10.44419703 22.16821289 11.13500977 C29.05438725 14.84186432 35.91787964 18.58400286 42.71679688 22.44897461 C49.3819012 26.2347884 56.09826543 29.92731979 62.8125 33.625 C72.53259843 38.97908077 82.24126252 44.35281385 91.9375 49.75 C105.65376404 57.37960998 119.41124369 64.93163789 133.2421875 72.3515625 C134.29639893 72.91858887 135.35061035 73.48561523 136.43676758 74.06982422 C138.43736333 75.14520499 140.43965123 76.21744736 142.4440918 77.28564453 C144.27514478 78.27045798 146.08836588 79.28941025 147.87882996 80.34622192 C150.95385797 82.10300145 150.95385797 82.10300145 154.36026001 83.02020264 C158.58885323 84.66052743 161.54001668 86.09648976 164 90 C166.37577281 98.81914306 165.55315544 108.40087063 165.31812119 117.4657917 C165.23653632 121.14367735 165.2291939 124.82171534 165.21379089 128.50036621 C165.17347369 135.45707856 165.06693008 142.41111715 164.93624753 149.36665487 C164.79065148 157.28892233 164.71939417 165.21132145 164.65420687 173.13459492 C164.51852672 189.42462558 164.29005672 205.71197101 164 222 C162.40202296 221.87014364 160.80473896 221.73174057 159.20779419 221.5897522 C158.31824099 221.51359995 157.42868778 221.4374477 156.51217842 221.35898781 C153.06250812 220.86603334 150.67403578 219.5631706 147.7421875 217.7109375 C146.63431885 217.02418945 145.5264502 216.33744141 144.38500977 215.62988281 C143.2147874 214.87859639 142.04478953 214.1269602 140.875 213.375 C139.64032057 212.60081553 138.40454261 211.82838051 137.16772461 211.05761719 C134.64900512 209.48382314 132.13727714 207.8997432 129.63134766 206.30566406 C126.29121488 204.18132061 122.9356776 202.08266527 119.57421875 199.9921875 C115.59767419 197.51858892 111.62618723 195.03729652 107.66015625 192.546875 C102.28724496 189.17542121 96.8966104 185.83335056 91.5 182.5 C84.08843291 177.9207404 76.69606141 173.31176711 69.3125 168.6875 C60.83479609 163.38009052 52.33339619 158.11277659 43.8125 152.875 C42.73282959 152.21089111 41.65315918 151.54678223 40.54077148 150.86254883 C35.3548209 147.67357506 30.16597113 144.48946618 24.97265625 141.3125 C23.10669878 140.16678401 21.24080969 139.02095664 19.375 137.875 C18.12360229 137.11292236 18.12360229 137.11292236 16.84692383 136.33544922 C3.35549654 128.03324481 3.35549654 128.03324481 0 123 C-0.24609566 120.70991993 -0.24609566 120.70991993 -0.24050903 117.96968079 C-0.24325836 116.93061584 -0.24600769 115.8915509 -0.24884033 114.82099915 C-0.24164978 113.68164413 -0.23445923 112.54228912 -0.22705078 111.3684082 C-0.22734283 110.16828094 -0.22763489 108.96815369 -0.22793579 107.73165894 C-0.22678038 104.44052104 -0.21674326 101.14963341 -0.20278788 97.85853982 C-0.19029362 94.41922507 -0.18911105 90.97990706 -0.18673706 87.54057312 C-0.18051845 81.02764444 -0.1641025 74.51478282 -0.14403808 68.00188369 C-0.12169092 60.58721252 -0.11068863 53.17253816 -0.10064721 45.75784171 C-0.07973658 30.50518895 -0.04455322 15.25260312 0 0 Z " fill="#F06E00" transform="translate(0,44)"/>
<path d="M0 0 C7.59 0 15.18 0 23 0 C23 47.19 23 94.38 23 143 C15.41 143 7.82 143 0 143 C-0.33 139.37 -0.66 135.74 -1 132 C-1.66 132.721875 -2.32 133.44375 -3 134.1875 C-10.76004228 141.8391618 -20.19174252 145.05299233 -31 145.375 C-42.72459358 145.02659476 -54.62174626 140.79499577 -63.34375 132.79296875 C-74.67645848 120.52477726 -79.73727013 106.05167859 -79.27734375 89.40234375 C-78.12925832 75.31808444 -72.29226074 61.87430493 -61.89453125 52.1953125 C-49.32811635 42.6645093 -36.41655362 40.59145946 -21 42 C-12.18028952 44.07467873 -8.01806571 47.8591925 -1 54 C-0.67 36.18 -0.34 18.36 0 0 Z M-49 72 C-55.34177578 81.69241922 -57.30205945 90.91151012 -54.9375 102.25 C-52.3186763 111.2861214 -46.91866629 117.10716554 -39 122 C-32.87869011 125.06065495 -25.06332401 125.06193288 -18.50390625 123.34765625 C-10.72407935 120.20606237 -4.81556101 115.28838329 -1.0625 107.75 C2.48217716 98.99608445 3.07201114 89.98952569 0 81 C-3.58192947 73.07277903 -8.29197753 67.62908916 -16.23046875 63.97265625 C-27.64229825 59.71040668 -41.10793782 62.19888537 -49 72 Z " fill="#000083" transform="translate(887,29)"/>
<path d="M0 0 C1.31049316 0.00858032 1.31049316 0.00858032 2.64746094 0.01733398 C14.21687321 0.33537503 22.00453478 4.4743995 30.1875 12.5 C30.5175 9.2 30.8475 5.9 31.1875 2.5 C38.7775 2.5 46.3675 2.5 54.1875 2.5 C54.1875 35.17 54.1875 67.84 54.1875 101.5 C46.5975 101.5 39.0075 101.5 31.1875 101.5 C30.8575 98.2 30.5275 94.9 30.1875 91.5 C29.54425781 92.03109375 28.90101563 92.5621875 28.23828125 93.109375 C17.95109963 101.15128018 7.30778695 104.94605313 -5.8125 103.5 C-18.96958019 101.15052139 -29.61281822 95.14048718 -37.8125 84.5 C-46.54492686 70.77307035 -50.05205005 55.55275348 -46.73168945 39.56958008 C-43.44056439 25.42925206 -36.25587149 14.02616322 -23.875 6.1875 C-16.30290285 1.65463224 -8.75438458 -0.06704114 0 0 Z M-17.8125 30.5 C-23.68167453 38.65423981 -25.69704341 47.69698108 -24.47265625 57.6328125 C-22.36911401 66.76890722 -17.70022456 74.37147947 -9.8125 79.5 C-3.06035546 83.42697946 5.19844086 83.81579582 12.67578125 81.84375 C20.46752614 78.72166914 27.08296338 73.37752495 30.44140625 65.5859375 C34.06891023 55.44412009 34.15707803 46.03896918 29.5625 36.125 C25.63164802 28.93097664 20.78190157 24.63681804 13.1875 21.5 C2.09363315 18.28861749 -10.26828982 21.65574315 -17.8125 30.5 Z " fill="#000083" transform="translate(740.8125,70.5)"/>
<path d="M0 0 C0.83942139 0.00161133 1.67884277 0.00322266 2.54370117 0.00488281 C11.73291897 0.18658296 18.29609156 2.91943663 25.6875 8.375 C26.47125 8.9525 27.255 9.53 28.0625 10.125 C28.59875 10.5375 29.135 10.95 29.6875 11.375 C30.0175 8.405 30.3475 5.435 30.6875 2.375 C38.2775 2.375 45.8675 2.375 53.6875 2.375 C53.6875 35.045 53.6875 67.715 53.6875 101.375 C46.0975 101.375 38.5075 101.375 30.6875 101.375 C30.3575 98.075 30.0275 94.775 29.6875 91.375 C28.6975 92.2825 27.7075 93.19 26.6875 94.125 C18.19142864 101.35860292 8.63108611 103.883251 -2.42578125 103.62109375 C-15.41098438 102.51410079 -26.42158354 97.30723192 -35.3125 87.78125 C-44.94363283 76.19379331 -49.04506193 61.89976895 -48.09375 46.93359375 C-46.3869215 31.98243255 -40.3037115 18.93491275 -28.7421875 9.1640625 C-20.02684775 2.74665799 -10.73510776 -0.0214124 0 0 Z M-17.3125 29.375 C-23.69965321 38.44378242 -25.26052806 47.42527592 -24.3125 58.375 C-22.36548273 67.18082812 -18.39039224 73.23162473 -11.3125 78.6875 C-3.78117213 82.92387193 3.96084023 83.67501759 12.40625 81.7578125 C19.67624866 79.22228828 25.22348738 74.72451793 29.03515625 67.99609375 C33.43166446 58.43093072 34.15376681 48.79256679 30.72265625 38.72265625 C27.40228262 31.19229944 21.38296103 24.64011643 13.64453125 21.5625 C2.51584943 18.46282847 -9.18745359 21.01470726 -17.3125 29.375 Z " fill="#000083" transform="translate(535.3125,70.625)"/>
<path d="M0 0 C2.8985527 2.19203048 5.39626504 4.44633687 8 7 C8.33 3.7 8.66 0.4 9 -3 C16.26 -3 23.52 -3 31 -3 C31 29.67 31 62.34 31 96 C23.74 96 16.48 96 9 96 C8.67 92.37 8.34 88.74 8 85 C6.845 86.0725 5.69 87.145 4.5 88.25 C-4.14022446 95.77977308 -13.47163111 98.48974467 -24.8515625 98.24609375 C-37.84461053 97.23050811 -49.15068067 91.58522946 -58 82 C-68.15854299 68.68379129 -71.12410993 54.48694558 -70 38 C-67.82664743 23.28280934 -60.61007957 11.84817698 -49 2.625 C-35.27202905 -7.06694749 -14.49818569 -9.15197972 0 0 Z M-39.625 24.6875 C-45.29511799 31.89403705 -48.00843565 40.89484915 -47 50 C-45.19700893 59.08385948 -42.18636955 65.98320235 -35 72 C-27.56872951 76.75548325 -20.65726152 77.75562133 -12 77 C-4.62950815 75.09423419 2.20443917 70.32261574 6.3515625 63.91015625 C10.90773604 55.10920233 11.49116001 44.6037086 9.31640625 34.97265625 C5.97776638 25.98187918 0.97010701 20.99216872 -7.6328125 16.9453125 C-19.29107734 12.28970179 -31.02698055 15.8847658 -39.625 24.6875 Z " fill="#000083" transform="translate(993,76)"/>
<path d="M0 0 C26.07 0 52.14 0 79 0 C79 21.13520752 79 21.13520752 74.83569336 25.44360352 C74.25053955 25.95721436 73.66538574 26.4708252 73.0625 27 C71.85547364 28.21616184 70.64974904 29.43361701 69.4453125 30.65234375 C68.85266602 31.22065918 68.26001953 31.78897461 67.64941406 32.37451172 C65.37496787 34.61596565 63.41383376 37.05744227 61.4375 39.5625 C58.02863031 43.77198495 54.53602019 47.89761866 51 52 C46.62924088 57.07148894 42.34156459 62.19504459 38.1328125 67.40234375 C35.47185562 70.64325277 32.72899589 73.81617146 30 77 C46.83 77.33 63.66 77.66 81 78 C81 84.93 81 91.86 81 99 C53.94 99 26.88 99 -1 99 C-1 77.86477944 -1 77.86477944 3.16455078 73.55615234 C3.74962402 73.04262207 4.33469727 72.5290918 4.9375 72 C6.14322365 70.78513961 7.34764582 69.56898618 8.55078125 68.3515625 C9.1432666 67.7834082 9.73575195 67.21525391 10.34619141 66.62988281 C12.6425338 64.36676179 14.62629468 61.90159652 16.625 59.375 C19.86729554 55.37260587 23.1640792 51.42417341 26.5 47.5 C34.17068557 38.46729223 41.59659386 29.25425768 49 20 C32.83 20 16.66 20 0 20 C0 13.4 0 6.8 0 0 Z " fill="#000083" transform="translate(606,73)"/>
<path d="M0 0 C7.92 0 15.84 0 24 0 C24 36.96 24 73.92 24 112 C37.2 112 50.4 112 64 112 C64 119.59 64 127.18 64 135 C42.88 135 21.76 135 0 135 C0 90.45 0 45.9 0 0 Z " fill="#000082" transform="translate(418,37)"/>
<path d="M0 0 C0.66 0.33 1.32 0.66 2 1 C1.67 44.89 1.34 88.78 1 134 C2.32 134.33 3.64 134.66 5 135 C-0.26053037 135.31563182 -3.44573816 134.66590937 -8 132 C-6 131 -6 131 0 132 C0 88.44 0 44.88 0 0 Z " fill="#F44143" transform="translate(164,134)"/>
</svg>
