<?xml version="1.0" encoding="UTF-8"?>
<svg version="1.1" xmlns="http://www.w3.org/2000/svg" width="800" height="256">
<path d="M0 0 C13.25835495 8.98515854 22.15219439 23.24338084 25.3125 38.875 C25.51430462 40.94802002 25.69447375 43.0232121 25.85791016 45.09960938 C25.94416656 46.1809314 26.03042297 47.26225342 26.11929321 48.37634277 C26.18305145 49.20089966 26.24680969 50.02545654 26.3125 50.875 C27.28302811 50.86833817 27.28302811 50.86833817 28.27316284 50.86154175 C34.98856403 50.81740075 41.70392422 50.78717212 48.41943359 50.76513672 C50.92791415 50.75505989 53.43638292 50.74139821 55.94482422 50.72412109 C59.54397488 50.69994663 63.14297067 50.68853388 66.7421875 50.6796875 C67.86930145 50.66936493 68.99641541 50.65904236 70.15768433 50.64840698 C71.19861237 50.64825592 72.23954041 50.64810486 73.31201172 50.64794922 C74.23134491 50.643508 75.1506781 50.63906677 76.09786987 50.63449097 C78.3125 50.875 78.3125 50.875 80.3125 52.875 C81.68702894 68.34367962 79.72948076 84.44176176 78.96485949 99.94331241 C78.8118974 103.05229389 78.66130983 106.16138887 78.51060998 109.27048069 C78.15489514 116.60621691 77.79463033 123.94172008 77.43164062 131.27709961 C77.05871179 138.81534218 76.69448585 146.35397136 76.33431208 153.89283317 C76.02291954 160.40310141 75.70567987 166.91306768 75.38390768 173.42283112 C75.19259961 177.29489401 75.0035387 181.16703246 74.82033157 185.03948784 C74.64810359 188.67531437 74.46854099 192.31070815 74.28352547 195.94590569 C74.18585928 197.89973826 74.0955677 199.8539352 74.00556946 201.80813599 C72.9356742 222.35601497 72.9356742 222.35601497 65.3125 229.875 C59.64396764 234.0988524 54.61829341 234.99811114 47.69720459 235.01544189 C47.03381238 235.01841302 46.37042017 235.02138414 45.68692517 235.0244453 C43.46542428 235.03311237 41.24397739 235.03463886 39.02246094 235.03613281 C37.428959 235.04076242 35.83545816 235.04578728 34.24195862 235.05117798 C29.9132844 235.06429082 25.58462569 235.07074484 21.25593472 235.07518864 C18.55023173 235.07812136 15.84453296 235.08222657 13.13883209 235.08669281 C4.66953703 235.10036524 -3.79974837 235.11003296 -12.2690537 235.1138947 C-22.03848209 235.11837398 -31.80777048 235.1359169 -41.57715631 235.1648953 C-49.133141 235.18652847 -56.68908636 235.19659987 -64.24510169 235.19793582 C-68.75578429 235.19898274 -73.26633523 235.2048664 -77.77698517 235.22275543 C-82.02218555 235.23926426 -86.26715569 235.24137802 -90.51237679 235.23261642 C-92.06675649 235.23184753 -93.62114872 235.23616921 -95.17549706 235.24607468 C-104.59504143 235.30256188 -111.90011907 235.09727563 -119.9375 229.6875 C-128.50608178 220.92417772 -127.83522328 209.72015286 -128.35180664 198.15454102 C-128.41047409 196.89630524 -128.46914154 195.63806946 -128.52958679 194.34170532 C-128.68961528 190.90479557 -128.84557451 187.46771292 -129.00046849 184.03056836 C-129.13105215 181.13954674 -129.26345627 178.24860951 -129.39578623 175.35766739 C-129.70901912 168.51226149 -130.01874142 161.6667027 -130.32641602 154.82104492 C-130.6408642 147.82631167 -130.96177344 140.83189622 -131.2858935 133.83760506 C-131.56603777 127.78633199 -131.84166544 121.73486349 -132.1139726 115.68323272 C-132.27570656 112.090293 -132.4390307 108.49744629 -132.60688972 104.90478706 C-133.24902054 91.12216896 -133.80620868 77.34572035 -133.89233398 63.54663086 C-133.90428582 62.49095948 -133.91623766 61.43528811 -133.92855167 60.34762669 C-133.92827693 59.38820636 -133.92800219 58.42878603 -133.92771912 57.44029236 C-133.93006278 56.60232589 -133.93240644 55.76435942 -133.93482113 54.90100002 C-133.6875 52.875 -133.6875 52.875 -131.6875 50.875 C-129.47286987 50.63449097 -129.47286987 50.63449097 -126.68701172 50.64794922 C-125.64608368 50.64810028 -124.60515564 50.64825134 -123.53268433 50.64840698 C-121.8420134 50.66389084 -121.8420134 50.66389084 -120.1171875 50.6796875 C-118.96582306 50.6825174 -117.81445862 50.68534729 -116.62820435 50.68826294 C-112.93953188 50.69948592 -109.25109947 50.72459444 -105.5625 50.75 C-103.06640975 50.76002706 -100.5703157 50.76915338 -98.07421875 50.77734375 C-91.94523016 50.79943216 -85.81638223 50.83293053 -79.6875 50.875 C-79.70192139 49.63153809 -79.71634277 48.38807617 -79.73120117 47.10693359 C-79.89715632 32.79770616 -72.74261679 19.4558148 -63.6875 8.875 C-62.97400391 7.96621094 -62.97400391 7.96621094 -62.24609375 7.0390625 C-46.7861495 -10.80243975 -19.09838096 -11.14291744 0 0 Z M-43.6875 11.875 C-44.31011719 12.20242187 -44.93273437 12.52984375 -45.57421875 12.8671875 C-55.32689003 18.87220308 -61.32813704 30.79435648 -63.9375 41.625 C-64.64219749 44.9054883 -64.6875 47.39115478 -64.6875 50.875 C-39.6075 50.875 -14.5275 50.875 11.3125 50.875 C8.92251673 35.34010874 4.92015897 23.77994949 -7.28515625 13.60546875 C-18.22366369 5.72618616 -31.93878788 5.4820071 -43.6875 11.875 Z M-58.28515625 94.71875 C-62.35091242 100.50326606 -63.985444 107.25686792 -63.53125 114.296875 C-62.06328964 122.483577 -57.57924743 128.93352306 -51.21484375 134.16015625 C-42.88407544 139.81271775 -33.2330541 143.0921066 -23.8125 146.4375 C-14.14142536 149.88474852 -6.03774138 153.51913731 -0.61328125 162.69140625 C1.36897677 167.36685872 1.20991085 173.22642528 -0.41015625 178.0078125 C-3.88966171 184.51603729 -8.97661486 187.35841807 -15.6875 189.875 C-30.09051395 193.33172335 -42.98226469 189.3409163 -55.54296875 182.2421875 C-57.6875 180.875 -57.6875 180.875 -59.6875 178.875 C-61.70827346 178.81598078 -61.70827346 178.81598078 -63.6875 179.875 C-65.67672073 182.10697129 -65.67672073 182.10697129 -66.6875 184.875 C-64.85583722 190.6598084 -58.65523516 193.1036627 -53.6875 195.875 C-41.20065009 201.97759582 -25.91542483 204.37601624 -12.3125 200.75 C-2.5841113 197.22878187 4.46267618 192.21088477 9.3046875 182.984375 C12.93504485 175.03216367 13.36225167 167.34039739 10.33984375 159.13671875 C3.25983359 143.54992833 -13.93041597 138.27288078 -28.75170898 132.50610352 C-45.69916259 125.8865722 -45.69916259 125.8865722 -50.6875 117.875 C-52.42692733 111.34944653 -51.81118489 106.76194459 -48.6875 100.875 C-48.3575 99.885 -48.0275 98.895 -47.6875 97.875 C-46.0625 96.875 -46.0625 96.875 -43.6875 95.875 C-42.553125 95.359375 -41.41875 94.84375 -40.25 94.3125 C-30.00279235 90.17766183 -20.07280996 91.82640901 -9.6875 94.875 C-5.55217704 96.65309839 -1.60383736 98.65861127 2.3125 100.875 C5.25711153 97.25680763 5.25711153 97.25680763 6.37109375 92.8984375 C4.66387129 89.63518572 1.54920429 88.65566108 -1.6875 87.25 C-2.37739014 86.94441162 -3.06728027 86.63882324 -3.77807617 86.32397461 C-21.9951587 78.44753241 -44.47286108 78.77888858 -58.28515625 94.71875 Z " fill="#EE4C2C" transform="translate(133.6875,7.125)"/>
<path d="M0 0 C0.6923877 0.33580078 1.38477539 0.67160156 2.09814453 1.01757812 C4.69748036 2.37810115 6.70023645 3.43231236 8.1875 6.01953125 C8.00936701 8.93089225 6.81757266 10.46362366 5.125 12.8125 C4.55910156 13.61171875 3.99320312 14.4109375 3.41015625 15.234375 C2.96542969 15.83765625 2.52070313 16.4409375 2.0625 17.0625 C-2.09972249 16.73390349 -5.16777806 15.5373541 -8.8125 13.625 C-18.35250902 8.73486204 -29.50218781 6.75860045 -39.98828125 10.0078125 C-44.6685568 12.21274231 -48.20319949 14.54496003 -50.9375 19.0625 C-51.81819175 21.70457524 -52.18793283 23.57202215 -52.3125 26.3125 C-52.36148437 27.03953125 -52.41046875 27.7665625 -52.4609375 28.515625 C-51.53742554 33.00913098 -48.96023639 36.57399319 -45.26806641 39.29101562 C-43.40209856 40.36309527 -41.51916157 41.29188523 -39.5625 42.1875 C-38.86060547 42.52458984 -38.15871094 42.86167969 -37.43554688 43.20898438 C-31.67412814 45.90109125 -25.80796706 47.81498764 -19.74609375 49.7265625 C-7.24054066 53.90921814 5.35763059 60.2493191 12.09765625 72.02734375 C16.19487092 80.66964676 15.97429138 90.08192237 13.0625 99.0625 C9.28622547 108.36038602 2.24051273 114.92396321 -6.72265625 119.2734375 C-23.99972125 125.42858235 -43.11733511 122.85333765 -59.4375 115.1875 C-64.20874955 112.66002727 -68.03832318 109.78444151 -71.9375 106.0625 C-71.48050722 101.03557937 -68.94508252 97.91353739 -65.9375 94.0625 C-61.67979544 94.28084382 -59.09135477 95.47476849 -55.6875 97.875 C-44.75747164 105.56855634 -33.02092083 107.25896485 -19.9375 106.0625 C-13.02452262 104.41533379 -7.21958132 101.3675833 -3.125 95.4375 C-1.51683402 90.866923 -1.24820363 86.85624296 -1.9375 82.0625 C-3.36671786 78.71028612 -3.36671786 78.71028612 -5.9375 76.0625 C-6.36546875 75.57265625 -6.7934375 75.0828125 -7.234375 74.578125 C-13.949138 67.863362 -24.03086319 65.44642962 -32.78515625 62.33984375 C-59.61051672 52.77631782 -59.61051672 52.77631782 -66.3125 39.875 C-69.99543213 32.01274055 -70.05303586 23.59222113 -67.375 15.375 C-63.94327883 6.93417005 -58.09573639 1.03586328 -49.9375 -2.9375 C-33.47520646 -9.62880639 -15.74202897 -7.7269349 0 0 Z " fill="#EE4D2C" transform="translate(328.9375,92.9375)"/>
<path d="M0 0 C4.62 0 9.24 0 14 0 C14.33 2.64 14.66 5.28 15 8 C15.94101562 7.50628906 16.88203125 7.01257813 17.8515625 6.50390625 C19.1091536 5.85634068 20.36697864 5.20922929 21.625 4.5625 C22.24246094 4.23701172 22.85992188 3.91152344 23.49609375 3.57617188 C32.70364207 -1.12452385 42.63972376 -1.16145387 52.5 1.5 C63.31656918 5.17403656 71.70603312 11.81486806 77 22 C82.42192338 34.9738881 82.30687043 46.01300031 77 59 C71.45275049 69.83190732 62.65219433 76.40603582 51.3125 80.25 C40.88342003 82.49062265 30.76283446 81.15658129 21 77 C19.02 75.68 17.04 74.36 15 73 C14.67 89.17 14.34 105.34 14 122 C9.38 122 4.76 122 0 122 C0 81.74 0 41.48 0 0 Z M20 24 C15.9061465 30.42368883 13.11216109 36.72370018 14.41015625 44.4375 C16.43175568 52.37863308 20.21318761 58.43259434 27.125 62.9375 C33.05041618 66.44753569 39.23821182 66.77123844 46 66 C54.11182409 63.48415891 59.99839649 58.42432635 64.09375 51.0234375 C67.01374468 44.23715356 66.86749672 37.7879217 64.4375 30.875 C61.36170119 23.97320754 57.07816443 19.66708507 50.1875 16.5625 C38.89675048 12.61073767 28.2949953 15.32795946 20 24 Z " fill="#EE4C2C" transform="translate(538,134)"/>
<path d="M0 0 C1.1859375 0.00257812 2.371875 0.00515625 3.59375 0.0078125 C4.7796875 0.00523438 5.965625 0.00265625 7.1875 0 C10.09375 0.1328125 10.09375 0.1328125 11.09375 1.1328125 C11.21674166 2.81990597 11.27160258 4.51202153 11.29907227 6.20336914 C11.31901749 7.28441422 11.33896271 8.36545929 11.35951233 9.47926331 C11.37622482 10.6552861 11.39293732 11.8313089 11.41015625 13.04296875 C11.43093735 14.24014023 11.45171844 15.43731171 11.47312927 16.67076111 C11.53875279 20.51221737 11.59756903 24.35374451 11.65625 28.1953125 C11.69942305 30.79232517 11.74303693 33.38933056 11.78710938 35.98632812 C11.89444716 42.36841367 11.99618931 48.75057043 12.09375 55.1328125 C12.76921875 54.78347656 13.4446875 54.43414062 14.140625 54.07421875 C15.47867187 53.39166016 15.47867187 53.39166016 16.84375 52.6953125 C17.72546875 52.24285156 18.6071875 51.79039062 19.515625 51.32421875 C27.84025134 47.47723234 39.41504535 47.83951663 48.03125 50.6953125 C57.33229026 54.67548738 64.90320824 61.32139316 69.21746826 70.53181458 C71.96239502 77.5725788 72.63400228 83.6294101 72.484375 91.14453125 C72.47871521 92.23876907 72.47305542 93.3330069 72.46722412 94.46040344 C72.44504843 97.91417442 72.39488722 101.36686149 72.34375 104.8203125 C72.32366072 107.17902135 72.30541423 109.53774665 72.2890625 111.89648438 C72.2452453 117.64233706 72.17634936 123.38739179 72.09375 129.1328125 C67.14375 129.1328125 62.19375 129.1328125 57.09375 129.1328125 C57.0844043 127.7917041 57.07505859 126.4505957 57.06542969 125.06884766 C57.02531711 120.05517331 56.95949989 115.04209892 56.88623047 110.02880859 C56.8581437 107.86612705 56.83686852 105.7033452 56.82275391 103.54052734 C56.80115362 100.41712543 56.75441607 97.29491407 56.703125 94.171875 C56.70189636 93.21729401 56.70066772 92.26271301 56.69940186 91.27920532 C56.54423074 84.037913 55.30766811 76.79612322 50.38592529 71.18618774 C44.86270862 66.03998142 39.11732364 64.62691126 31.68359375 64.828125 C25.33055852 65.57554091 20.66791567 67.94287226 16.65625 72.9453125 C11.88326373 79.54046446 11.77508187 86.82962559 11.6796875 94.66015625 C11.66032135 95.64907364 11.6409552 96.63799103 11.6210022 97.65687561 C11.56154378 100.79460201 11.51495644 103.93236578 11.46875 107.0703125 C11.43053916 109.20639561 11.39148564 111.34246383 11.3515625 113.47851562 C11.25587008 118.69649264 11.17171505 123.91454173 11.09375 129.1328125 C6.14375 129.1328125 1.19375 129.1328125 -3.90625 129.1328125 C-3.92936873 112.46095746 -3.94722909 95.789109 -3.95806217 79.11724186 C-3.96322517 71.37673968 -3.97026793 63.63624763 -3.98168945 55.89575195 C-3.99163619 49.15154099 -3.9981034 42.40733735 -4.00033849 35.66311926 C-4.00164562 32.08994384 -4.00473158 28.5167894 -4.01198006 24.94362068 C-4.01999372 20.96118899 -4.02024114 16.97877809 -4.01977539 12.99633789 C-4.02337067 11.80303864 -4.02696594 10.60973938 -4.03067017 9.38027954 C-4.0292955 8.30189316 -4.02792084 7.22350677 -4.02650452 6.11244202 C-4.02742631 5.16944779 -4.0283481 4.22645357 -4.02929783 3.25488377 C-3.83678437 -0.06518525 -3.3798107 0.15445371 0 0 Z " fill="#EE4D2C" transform="translate(359.90625,85.8671875)"/>
<path d="M0 0 C8.9235583 6.24478459 15.74035753 14.80479535 17.79296875 25.6796875 C17.88544698 27.90732479 17.92296214 30.13763705 17.91796875 32.3671875 C17.92183594 34.10548828 17.92183594 34.10548828 17.92578125 35.87890625 C17.79296875 38.6796875 17.79296875 38.6796875 16.79296875 39.6796875 C14.92200764 39.80312777 13.04645947 39.85761144 11.17163086 39.88500977 C9.36987648 39.9149276 9.36987648 39.9149276 7.53172302 39.94544983 C6.22445755 39.96216232 4.91719208 39.97887482 3.5703125 39.99609375 C2.22652028 40.01665708 0.88273463 40.03765338 -0.46104431 40.05906677 C-4.00378112 40.11435169 -7.54657692 40.16373248 -11.0894165 40.21191406 C-14.70224275 40.26208237 -18.31498297 40.31779275 -21.92773438 40.37304688 C-29.02075872 40.48070687 -36.11386013 40.5821343 -43.20703125 40.6796875 C-42.46707404 42.27873635 -41.71297229 43.87124383 -40.953125 45.4609375 C-40.53474365 46.34845703 -40.1163623 47.23597656 -39.68530273 48.15039062 C-36.24022556 54.04485793 -30.64072719 56.95262523 -24.20703125 58.6796875 C-21.57049367 58.91686557 -19.08968947 59.06098799 -16.45703125 59.0546875 C-15.75473389 59.05307617 -15.05243652 59.05146484 -14.32885742 59.04980469 C-5.75006334 58.84880848 0.20993283 56.1010112 6.79296875 50.6796875 C8.11296875 50.6796875 9.43296875 50.6796875 10.79296875 50.6796875 C12.27734375 52.25390625 12.27734375 52.25390625 13.54296875 54.3671875 C13.9709375 55.05167969 14.39890625 55.73617187 14.83984375 56.44140625 C15.99378335 59.1512726 16.28857954 60.76623715 15.79296875 63.6796875 C7.74177583 71.91577212 -3.76273667 74.7034618 -14.91552734 74.92138672 C-28.29379451 74.97578293 -38.85188338 71.66042514 -48.95703125 62.5546875 C-57.51532515 53.46910535 -59.72063395 42.57660207 -59.484375 30.5390625 C-58.7064655 19.71406833 -53.23949618 10.21306918 -45.39453125 2.8671875 C-32.54659073 -7.76133911 -14.15124167 -8.46569856 0 0 Z M-36.41015625 14.88671875 C-39.29769786 17.76798309 -41.39740944 21.03434356 -43.20703125 24.6796875 C-43.20703125 25.0096875 -43.20703125 25.3396875 -43.20703125 25.6796875 C-28.35703125 25.6796875 -13.50703125 25.6796875 1.79296875 25.6796875 C-0.24956689 19.51656464 -0.24956689 19.51656464 -4.51953125 15.4296875 C-5.27878906 14.76453125 -6.03804687 14.099375 -6.8203125 13.4140625 C-16.31619531 6.51361738 -27.59364835 7.74534735 -36.41015625 14.88671875 Z " fill="#EE4C2C" transform="translate(691.20703125,139.3203125)"/>
<path d="M0 0 C8.9235583 6.24478459 15.74035753 14.80479535 17.79296875 25.6796875 C17.88544698 27.90732479 17.92296214 30.13763705 17.91796875 32.3671875 C17.92183594 34.10548828 17.92183594 34.10548828 17.92578125 35.87890625 C17.79296875 38.6796875 17.79296875 38.6796875 16.79296875 39.6796875 C14.92200764 39.80312777 13.04645947 39.85761144 11.17163086 39.88500977 C9.36987648 39.9149276 9.36987648 39.9149276 7.53172302 39.94544983 C6.22445755 39.96216232 4.91719208 39.97887482 3.5703125 39.99609375 C2.22652028 40.01665708 0.88273463 40.03765338 -0.46104431 40.05906677 C-4.00378112 40.11435169 -7.54657692 40.16373248 -11.0894165 40.21191406 C-14.70224275 40.26208237 -18.31498297 40.31779275 -21.92773438 40.37304688 C-29.02075872 40.48070687 -36.11386013 40.5821343 -43.20703125 40.6796875 C-42.46707404 42.27873635 -41.71297229 43.87124383 -40.953125 45.4609375 C-40.53474365 46.34845703 -40.1163623 47.23597656 -39.68530273 48.15039062 C-36.24022556 54.04485793 -30.64072719 56.95262523 -24.20703125 58.6796875 C-21.57049367 58.91686557 -19.08968947 59.06098799 -16.45703125 59.0546875 C-15.75473389 59.05307617 -15.05243652 59.05146484 -14.32885742 59.04980469 C-5.75006334 58.84880848 0.20993283 56.1010112 6.79296875 50.6796875 C8.11296875 50.6796875 9.43296875 50.6796875 10.79296875 50.6796875 C12.49609375 52.8671875 12.49609375 52.8671875 14.04296875 55.6796875 C14.82414063 57.071875 14.82414063 57.071875 15.62109375 58.4921875 C16.0078125 59.2140625 16.39453125 59.9359375 16.79296875 60.6796875 C12.82841222 67.95209488 6.74550554 70.64653448 -0.93359375 73.1015625 C-14.42690933 76.53285237 -28.20524289 75.76446089 -40.39453125 68.9296875 C-49.93346226 62.82955607 -54.33234876 55.7979489 -58.51953125 45.4296875 C-60.90076879 32.4411191 -59.00234519 21.08686881 -51.9296875 10 C-39.77188536 -6.37581512 -17.35863794 -10.38445951 0 0 Z M-36.41015625 14.88671875 C-39.29769786 17.76798309 -41.39740944 21.03434356 -43.20703125 24.6796875 C-43.20703125 25.0096875 -43.20703125 25.3396875 -43.20703125 25.6796875 C-28.35703125 25.6796875 -13.50703125 25.6796875 1.79296875 25.6796875 C0.33094285 19.8315839 -3.22825123 15.7257771 -8.203125 12.30859375 C-18.05923358 7.06353012 -27.76979593 7.88802689 -36.41015625 14.88671875 Z " fill="#EE4C2C" transform="translate(782.20703125,139.3203125)"/>
<path d="M0 0 C8.90549342 5.68109063 14.64868124 13.88446545 17.59765625 24.0078125 C20.08039054 35.55006066 18.41467521 46.8990904 12.15625 56.98046875 C5.72469297 65.69206546 -2.7119037 71.44693865 -13.30078125 73.87890625 C-25.69461376 75.74049679 -36.24202508 73.84398868 -46.80078125 67.09765625 C-55.5756625 60.5344472 -61.49661011 51.20183089 -63.1875 40.3125 C-64.15146275 29.56668573 -62.42690327 19.16989718 -55.875 10.375 C-41.37564837 -6.46892764 -19.8073841 -10.91487983 0 0 Z M-43.1875 18.75 C-47.55923783 24.99387026 -49.17051058 30.73967775 -48.1875 38.3125 C-46.47841649 44.52063038 -44.21875129 49.14024283 -39.1875 53.3125 C-38.383125 54.034375 -37.57875 54.75625 -36.75 55.5 C-30.49341103 59.9253922 -23.62998767 60.20409688 -16.1875 59.3125 C-8.86431172 57.07918726 -3.26977808 52.78081873 0.8125 46.3125 C4.13843053 39.17728571 4.52472833 32.71575947 2.16015625 25.25390625 C-0.63676733 18.64182423 -6.18444325 13.34045119 -12.5546875 10.11328125 C-24.2010995 6.57097493 -35.50594876 9.41226215 -43.1875 18.75 Z " fill="#EE4C2C" transform="translate(506.1875,139.6875)"/>
</svg>
